<svg xmlns="http://www.w3.org/2000/svg" width="90" height="720" viewBox="0 0 90 720">
  <defs>
    <linearGradient id="base"><stop stop-color="#c3bdaf"/><stop offset=".5" stop-color="#cec8bb"/><stop offset="1" stop-color="#c1baac"/></linearGradient>
    <filter id="g"><feTurbulence type="fractalNoise" baseFrequency=".4" numOctaves="2" seed="3" result="n"/><feColorMatrix in="n" type="matrix" values="0 0 0 0 .3 0 0 0 0 .29 0 0 0 0 .27 0 0 0 .7 0"/><feComponentTransfer><feFuncA type="linear" slope=".035"/></feComponentTransfer></filter>
  </defs>
  <rect width="90" height="720" fill="url(#base)"/>
  <rect width="90" height="720" fill="#000" filter="url(#g)"/>
  <rect width="90" height="8" fill="#4a4438" opacity=".05"/><rect y="712" width="90" height="8" fill="#4a4438" opacity=".05"/>
  <g fill="none" stroke-linecap="round">
    <line x1="3" y1="18" x2="90" y2="17.6" stroke="#675d4a" stroke-width="1.2" opacity=".025"/>
    <line x1="4.3" y1="43.6" x2="84.6" y2="43" stroke="#675d4a" stroke-width="1.3" opacity=".017"/>
    <line x1="6.5" y1="73" x2="87.5" y2="73.8" stroke="#675d4a" opacity=".017"/>
    <line x1="1.7" y1="109.1" x2="80.5" y2="108.5" stroke="#675d4a" stroke-width="1.1" opacity=".013"/>
    <line x1="5.6" y1="136.3" x2="80.1" y2="136.8" stroke="#f4ecdc" stroke-width="1.2" opacity=".011"/>
    <line x1="2.7" y1="180.7" x2="83.2" y2="180" stroke="#675d4a" opacity=".015"/>
    <line x1=".1" y1="211.3" x2="85.9" y2="210.6" stroke="#675d4a" opacity=".017"/>
    <line x1="7.5" y1="247" x2="85.9" y2="246.3" stroke="#675d4a" stroke-width=".8" opacity=".012"/>
    <line x1="5.7" y1="282.3" x2="88" y2="282.5" stroke="#675d4a" opacity=".024"/>
    <line x1=".9" y1="321.7" x2="82.7" y2="321.7" stroke="#675d4a" stroke-width=".8" opacity=".014"/>
    <line x1="4.7" y1="345.7" x2="88.8" y2="346.2" stroke="#675d4a" opacity=".025"/>
    <line x1="2.1" y1="369.8" x2="88.8" y2="370.2" stroke="#675d4a" stroke-width="1.2" opacity=".014"/>
    <line x1="6.8" y1="408.9" x2="87.7" y2="409.2" stroke="#675d4a" stroke-width=".9" opacity=".024"/>
    <line x1="7.7" y1="440.6" x2="85.4" y2="441.4" stroke="#f4ecdc" stroke-width="1.3" opacity=".010"/>
    <line x1="2.7" y1="467" x2="82.2" y2="467.6" stroke="#675d4a" stroke-width="1.2" opacity=".013"/>
    <line x1="4.3" y1="498.8" x2="87.5" y2="499.5" stroke="#675d4a" stroke-width=".9" opacity=".025"/>
    <line x1="3.4" y1="525.1" x2="82.4" y2="525.9" stroke="#f4ecdc" stroke-width="1.3" opacity=".008"/>
    <line x1="2.1" y1="559.8" x2="84.9" y2="559.2" stroke="#675d4a" stroke-width="1.2" opacity=".016"/>
  </g>
</svg>
